<svg width="56" height="56" viewBox="0 0 56 56" fill="none" xmlns="http://www.w3.org/2000/svg">
<rect width="56" height="56" rx="8.4" fill="url(#paint0_linear_1_62)"/>
<rect x="1.05" y="1.05" width="53.9" height="53.9" rx="7.35" stroke="white" stroke-opacity="0.15" stroke-width="2.1"/>
<g filter="url(#filter0_d_1_62)">
<path d="M47.9601 17.7223C47.9293 17.3662 47.6939 17.0603 47.3575 16.9384C47.0204 16.8156 46.6429 16.8992 46.3893 17.1515L41.1996 22.3213L35.4463 20.5065L33.6247 14.775L38.8145 9.60473C39.0684 9.35195 39.1513 8.97587 39.0289 8.64056C38.9053 8.30458 38.5991 8.07056 38.2409 8.03971C35.0891 7.76918 32.0008 8.89025 29.768 11.115C26.71 14.1617 25.9002 18.6108 27.3342 22.4032C27.1775 22.5347 27.0228 22.6741 26.8703 22.8244L9.54673 39.1096C9.54062 39.1155 9.53459 39.122 9.52798 39.1278C7.49067 41.1575 7.49067 44.4601 9.52798 46.4901C11.5656 48.5197 14.8564 48.495 16.8934 46.4653C16.9021 46.4571 16.9102 46.4489 16.9182 46.4399L33.1223 29.0472C33.27 28.8993 33.4072 28.7447 33.5365 28.586C37.3441 30.0172 41.8129 29.2123 44.8736 26.1636C47.1059 23.9387 48.232 20.8618 47.9601 17.7223ZM14.2828 44.2975C13.5321 45.0453 12.3162 45.0448 11.5655 44.2975C10.8151 43.5504 10.8151 42.3381 11.5655 41.5908C12.3162 40.8436 13.5321 40.8436 14.2828 41.5908C15.0332 42.3381 15.0332 43.5504 14.2828 44.2975Z" fill="url(#paint1_linear_1_62)" fill-opacity="0.8"/>
</g>
<defs>
<filter id="filter0_d_1_62" x="2.28571" y="2.28571" width="51.4286" height="51.4286" filterUnits="userSpaceOnUse" color-interpolation-filters="sRGB">
<feFlood flood-opacity="0" result="BackgroundImageFix"/>
<feColorMatrix in="SourceAlpha" type="matrix" values="0 0 0 0 0 0 0 0 0 0 0 0 0 0 0 0 0 0 127 0" result="hardAlpha"/>
<feOffset/>
<feGaussianBlur stdDeviation="2.85714"/>
<feComposite in2="hardAlpha" operator="out"/>
<feColorMatrix type="matrix" values="0 0 0 0 0 0 0 0 0 0 0 0 0 0 0 0 0 0 0.25 0"/>
<feBlend mode="normal" in2="BackgroundImageFix" result="effect1_dropShadow_1_62"/>
<feBlend mode="normal" in="SourceGraphic" in2="effect1_dropShadow_1_62" result="shape"/>
</filter>
<linearGradient id="paint0_linear_1_62" x1="28" y1="0" x2="28" y2="56" gradientUnits="userSpaceOnUse">
<stop stop-color="#300E0C"/>
<stop offset="1" stop-color="#200908"/>
</linearGradient>
<linearGradient id="paint1_linear_1_62" x1="22.7221" y1="42.2222" x2="33.7993" y2="7.97545" gradientUnits="userSpaceOnUse">
<stop offset="0.120192" stop-color="#F22F21"/>
<stop offset="1" stop-color="#FFAC59"/>
</linearGradient>
</defs>
</svg>
