<svg width="144" height="61" viewBox="0 0 144 61" fill="none" xmlns="http://www.w3.org/2000/svg">
<rect width="143.83" height="61" rx="8" fill="url(#paint0_linear_1_50)"/>
<rect x="1.05" y="1.05" width="141.73" height="58.9" rx="6.95" stroke="white" stroke-opacity="0.15" stroke-width="2.1"/>
<path d="M56.7858 18.9376C56.7512 18.537 56.4874 18.1929 56.1105 18.0556C55.7326 17.9176 55.3096 18.0116 55.0253 18.2954L49.2088 24.1115L42.7608 22.0698L40.7192 15.6219L46.5357 9.80532C46.8204 9.52095 46.9132 9.09785 46.7761 8.72063C46.6376 8.34265 46.2943 8.07938 45.8929 8.04467C42.3604 7.74032 38.8992 9.00153 36.3968 11.5043C32.9695 14.9319 32.0619 19.9372 33.6691 24.2036C33.4934 24.3516 33.3201 24.5084 33.1491 24.6775L13.7335 42.9983C13.7267 43.0049 13.7199 43.0122 13.7125 43.0188C11.4292 45.3022 11.4292 49.0176 13.7125 51.3014C15.9962 53.5846 19.6844 53.5569 21.9673 51.2734C21.9772 51.2642 21.9862 51.255 21.9952 51.2448L40.1561 31.678C40.3217 31.5118 40.4754 31.3378 40.6203 31.1592C44.8878 32.7693 49.8962 31.8638 53.3266 28.434C55.8284 25.931 57.0905 22.4695 56.7858 18.9376ZM19.0415 48.8347C18.2001 49.6759 16.8374 49.6753 15.9961 48.8347C15.1551 47.9942 15.1551 46.6304 15.9961 45.7897C16.8374 44.949 18.2001 44.949 19.0415 45.7897C19.8826 46.6304 19.8826 47.9942 19.0415 48.8347Z" fill="url(#paint1_linear_1_50)" fill-opacity="0.8"/>
<g filter="url(#filter0_d_1_50)">
<path d="M66.1089 27V15.3636H70.2566C71.1582 15.3636 71.9063 15.5189 72.501 15.8295C73.0994 16.1401 73.5464 16.5701 73.8419 17.1193C74.1373 17.6648 74.285 18.2954 74.285 19.0114C74.285 19.7235 74.1354 20.3504 73.8362 20.892C73.5407 21.4299 73.0938 21.8485 72.4953 22.1477C71.9006 22.447 71.1525 22.5966 70.251 22.5966H67.1089V21.0852H70.0919C70.66 21.0852 71.1222 21.0038 71.4782 20.8409C71.8381 20.678 72.1013 20.4413 72.268 20.1307C72.4347 19.8201 72.518 19.447 72.518 19.0114C72.518 18.572 72.4328 18.1913 72.2623 17.8693C72.0957 17.5473 71.8324 17.3011 71.4725 17.1307C71.1165 16.9564 70.6487 16.8693 70.0691 16.8693H67.8646V27H66.1089ZM71.8532 21.75L74.7282 27H72.7282L69.91 21.75H71.8532ZM79.937 27.1761C79.0772 27.1761 78.3367 26.9924 77.7154 26.625C77.098 26.2538 76.6207 25.7329 76.2836 25.0625C75.9503 24.3882 75.7836 23.5985 75.7836 22.6932C75.7836 21.7992 75.9503 21.0114 76.2836 20.3295C76.6207 19.6477 77.0904 19.1155 77.6927 18.7329C78.2988 18.3504 79.0071 18.1591 79.8177 18.1591C80.3101 18.1591 80.7874 18.2405 81.2495 18.4034C81.7117 18.5663 82.1264 18.822 82.4939 19.1704C82.8613 19.5189 83.151 19.9716 83.3632 20.5284C83.5753 21.0814 83.6814 21.7538 83.6814 22.5454V23.1477H76.7439V21.875H82.0166C82.0166 21.428 81.9257 21.0322 81.7439 20.6875C81.562 20.339 81.3064 20.0644 80.9768 19.8636C80.651 19.6629 80.2685 19.5625 79.8291 19.5625C79.3518 19.5625 78.9351 19.6799 78.5791 19.9148C78.2268 20.1458 77.9541 20.4489 77.7609 20.8239C77.5715 21.1951 77.4768 21.5985 77.4768 22.0341V23.0284C77.4768 23.6117 77.5791 24.1079 77.7836 24.517C77.992 24.9261 78.2817 25.2386 78.6529 25.4545C79.0242 25.6667 79.4579 25.7727 79.9541 25.7727C80.2761 25.7727 80.5696 25.7273 80.8348 25.6364C81.0999 25.5417 81.3291 25.4015 81.5223 25.2159C81.7154 25.0303 81.8632 24.8011 81.9654 24.5284L83.5734 24.8182C83.4446 25.2917 83.2135 25.7064 82.8802 26.0625C82.5507 26.4148 82.1359 26.6894 81.6359 26.8864C81.1397 27.0795 80.5734 27.1761 79.937 27.1761ZM91.4583 30.2727V25.642H91.3561C91.2538 25.8276 91.1061 26.0398 90.9129 26.2784C90.7235 26.517 90.4621 26.7254 90.1288 26.9034C89.7955 27.0814 89.3636 27.1704 88.8333 27.1704C88.1288 27.1704 87.5 26.9905 86.947 26.6307C86.3977 26.267 85.9659 25.75 85.6515 25.0795C85.3409 24.4053 85.1856 23.5966 85.1856 22.6534C85.1856 21.7102 85.3428 20.9034 85.6572 20.2329C85.9754 19.5625 86.411 19.0492 86.964 18.6932C87.5171 18.3371 88.1439 18.1591 88.8447 18.1591C89.3864 18.1591 89.822 18.25 90.1515 18.4318C90.4849 18.6098 90.7424 18.8182 90.9242 19.0568C91.1099 19.2954 91.2538 19.5057 91.3561 19.6875H91.4981V18.2727H93.1572V30.2727H91.4583ZM89.2083 25.7216C89.697 25.7216 90.1099 25.5928 90.447 25.3352C90.7879 25.0739 91.0455 24.7121 91.2197 24.25C91.3977 23.7879 91.4867 23.25 91.4867 22.6364C91.4867 22.0303 91.3996 21.5 91.2254 21.0454C91.0511 20.5909 90.7955 20.2367 90.4583 19.9829C90.1212 19.7292 89.7046 19.6023 89.2083 19.6023C88.697 19.6023 88.2708 19.7348 87.9299 20C87.589 20.2651 87.3314 20.6269 87.1572 21.0852C86.9867 21.5436 86.9015 22.0606 86.9015 22.6364C86.9015 23.2197 86.9886 23.7443 87.1629 24.2102C87.3371 24.6761 87.5947 25.0454 87.9356 25.3182C88.2803 25.5871 88.7046 25.7216 89.2083 25.7216ZM100.97 23.3807V18.2727H102.674V27H101.004V25.4886H100.913C100.712 25.9545 100.39 26.3428 99.947 26.6534C99.5076 26.9602 98.9602 27.1136 98.3049 27.1136C97.7443 27.1136 97.2481 26.9905 96.8163 26.7443C96.3883 26.4943 96.0511 26.125 95.8049 25.6364C95.5625 25.1477 95.4413 24.5436 95.4413 23.8239V18.2727H97.1402V23.6193C97.1402 24.214 97.3049 24.6875 97.6345 25.0398C97.964 25.392 98.392 25.5682 98.9186 25.5682C99.2367 25.5682 99.553 25.4886 99.8674 25.3295C100.186 25.1704 100.449 24.9299 100.657 24.6079C100.869 24.286 100.973 23.8769 100.97 23.3807ZM104.957 27V18.2727H106.656V27H104.957ZM105.815 16.9261C105.519 16.9261 105.266 16.8276 105.054 16.6307C104.845 16.4299 104.741 16.1913 104.741 15.9148C104.741 15.6345 104.845 15.3958 105.054 15.1989C105.266 14.9981 105.519 14.8977 105.815 14.8977C106.11 14.8977 106.362 14.9981 106.571 15.1989C106.783 15.3958 106.889 15.6345 106.889 15.9148C106.889 16.1913 106.783 16.4299 106.571 16.6307C106.362 16.8276 106.11 16.9261 105.815 16.9261ZM108.941 27V18.2727H110.583V19.6591H110.674C110.833 19.1894 111.114 18.8201 111.515 18.5511C111.92 18.2784 112.379 18.142 112.89 18.142C112.996 18.142 113.121 18.1458 113.265 18.1534C113.413 18.161 113.528 18.1704 113.612 18.1818V19.8068C113.544 19.7879 113.422 19.767 113.248 19.7443C113.074 19.7178 112.9 19.7045 112.725 19.7045C112.324 19.7045 111.966 19.7898 111.652 19.9602C111.341 20.1269 111.095 20.3598 110.913 20.6591C110.731 20.9545 110.64 21.2917 110.64 21.6704V27H108.941ZM118.531 27.1761C117.671 27.1761 116.93 26.9924 116.309 26.625C115.692 26.2538 115.214 25.7329 114.877 25.0625C114.544 24.3882 114.377 23.5985 114.377 22.6932C114.377 21.7992 114.544 21.0114 114.877 20.3295C115.214 19.6477 115.684 19.1155 116.286 18.7329C116.893 18.3504 117.601 18.1591 118.411 18.1591C118.904 18.1591 119.381 18.2405 119.843 18.4034C120.305 18.5663 120.72 18.822 121.088 19.1704C121.455 19.5189 121.745 19.9716 121.957 20.5284C122.169 21.0814 122.275 21.7538 122.275 22.5454V23.1477H115.338V21.875H120.61C120.61 21.428 120.519 21.0322 120.338 20.6875C120.156 20.339 119.9 20.0644 119.571 19.8636C119.245 19.6629 118.862 19.5625 118.423 19.5625C117.946 19.5625 117.529 19.6799 117.173 19.9148C116.821 20.1458 116.548 20.4489 116.355 20.8239C116.165 21.1951 116.071 21.5985 116.071 22.0341V23.0284C116.071 23.6117 116.173 24.1079 116.377 24.517C116.586 24.9261 116.875 25.2386 117.247 25.4545C117.618 25.6667 118.052 25.7727 118.548 25.7727C118.87 25.7727 119.163 25.7273 119.429 25.6364C119.694 25.5417 119.923 25.4015 120.116 25.2159C120.309 25.0303 120.457 24.8011 120.559 24.5284L122.167 24.8182C122.038 25.2917 121.807 25.7064 121.474 26.0625C121.144 26.4148 120.73 26.6894 120.23 26.8864C119.733 27.0795 119.167 27.1761 118.531 27.1761ZM130.7 20.4034L129.16 20.6761C129.096 20.4792 128.993 20.2917 128.853 20.1136C128.717 19.9356 128.531 19.7898 128.296 19.6761C128.062 19.5625 127.768 19.5057 127.416 19.5057C126.935 19.5057 126.533 19.6136 126.211 19.8295C125.889 20.0417 125.728 20.3163 125.728 20.6534C125.728 20.9451 125.836 21.1799 126.052 21.3579C126.268 21.536 126.616 21.6818 127.098 21.7954L128.484 22.1136C129.287 22.2992 129.885 22.5852 130.279 22.9716C130.673 23.3579 130.87 23.8598 130.87 24.4773C130.87 25 130.719 25.4659 130.416 25.875C130.116 26.2803 129.698 26.5985 129.16 26.8295C128.626 27.0606 128.007 27.1761 127.302 27.1761C126.325 27.1761 125.527 26.9678 124.91 26.5511C124.293 26.1307 123.914 25.5341 123.774 24.7614L125.416 24.5114C125.518 24.9394 125.728 25.2632 126.046 25.4829C126.365 25.6989 126.779 25.8068 127.291 25.8068C127.848 25.8068 128.293 25.6913 128.626 25.4602C128.959 25.2254 129.126 24.9394 129.126 24.6023C129.126 24.3295 129.024 24.1004 128.819 23.9148C128.618 23.7292 128.31 23.589 127.893 23.4943L126.416 23.1704C125.601 22.9848 124.999 22.6894 124.609 22.2841C124.223 21.8788 124.029 21.3655 124.029 20.7443C124.029 20.2292 124.173 19.7784 124.461 19.392C124.749 19.0057 125.147 18.7045 125.654 18.4886C126.162 18.2689 126.743 18.1591 127.399 18.1591C128.342 18.1591 129.084 18.3636 129.626 18.7727C130.168 19.178 130.526 19.7216 130.7 20.4034Z" fill="#E8E8E8"/>
<path d="M76.8983 33.6364H79.8806V41.6111C79.8806 42.5328 79.6612 43.3357 79.2225 44.0199C78.7839 44.7 78.1721 45.2273 77.3873 45.6015C76.6025 45.9718 75.6909 46.1569 74.6526 46.1569C73.6022 46.1569 72.6846 45.9718 71.8998 45.6015C71.1149 45.2273 70.5052 44.7 70.0706 44.0199C69.6359 43.3357 69.4186 42.5328 69.4186 41.6111V33.6364H72.4069V41.3515C72.4069 41.7782 72.4994 42.1585 72.6846 42.4925C72.8737 42.8266 73.1373 43.0882 73.4754 43.2773C73.8135 43.4665 74.2059 43.5611 74.6526 43.5611C75.0993 43.5611 75.4897 43.4665 75.8238 43.2773C76.1618 43.0882 76.4254 42.8266 76.6146 42.4925C76.8038 42.1585 76.8983 41.7782 76.8983 41.3515V33.6364ZM84.7056 40.7116V46H81.7535V36.7273H84.5607V38.4297H84.6633C84.8686 37.8622 85.2187 37.4175 85.7138 37.0955C86.2088 36.7695 86.7984 36.6065 87.4826 36.6065C88.1346 36.6065 88.7 36.7534 89.179 37.0472C89.6619 37.337 90.0362 37.7435 90.3018 38.2667C90.5715 38.7859 90.7043 39.3936 90.7003 40.0898V46H87.7482V40.6694C87.7522 40.1542 87.6214 39.7518 87.3558 39.462C87.0942 39.1722 86.73 39.0273 86.2631 39.0273C85.9532 39.0273 85.6795 39.0957 85.4421 39.2326C85.2087 39.3654 85.0276 39.5566 84.8988 39.8061C84.774 40.0556 84.7096 40.3575 84.7056 40.7116ZM92.5279 46V36.7273H95.48V46H92.5279ZM94.007 35.6466C93.5925 35.6466 93.2363 35.5098 92.9385 35.2361C92.6406 34.9584 92.4917 34.6244 92.4917 34.234C92.4917 33.8476 92.6406 33.5176 92.9385 33.244C93.2363 32.9663 93.5925 32.8274 94.007 32.8274C94.4255 32.8274 94.7817 32.9663 95.0755 33.244C95.3733 33.5176 95.5223 33.8476 95.5223 34.234C95.5223 34.6244 95.3733 34.9584 95.0755 35.2361C94.7817 35.5098 94.4255 35.6466 94.007 35.6466ZM97.359 46V33.6364H100.347V43.5731H105.491V46H97.359ZM107.038 46V36.7273H109.99V46H107.038ZM108.517 35.6466C108.102 35.6466 107.746 35.5098 107.448 35.2361C107.15 34.9584 107.001 34.6244 107.001 34.234C107.001 33.8476 107.15 33.5176 107.448 33.244C107.746 32.9663 108.102 32.8274 108.517 32.8274C108.935 32.8274 109.291 32.9663 109.585 33.244C109.883 33.5176 110.032 33.8476 110.032 34.234C110.032 34.6244 109.883 34.9584 109.585 35.2361C109.291 35.5098 108.935 35.6466 108.517 35.6466ZM111.869 46V33.6364H114.821V38.315H114.881C115.002 38.0332 115.173 37.7616 115.394 37.5C115.62 37.2384 115.905 37.0251 116.252 36.8601C116.602 36.691 117.02 36.6065 117.507 36.6065C118.151 36.6065 118.753 36.7756 119.312 37.1136C119.876 37.4517 120.331 37.9729 120.677 38.6772C121.023 39.3815 121.196 40.279 121.196 41.3697C121.196 42.4201 121.029 43.2995 120.695 44.0078C120.365 44.7161 119.918 45.2474 119.355 45.6015C118.795 45.9557 118.173 46.1328 117.489 46.1328C117.022 46.1328 116.618 46.0563 116.276 45.9034C115.934 45.7505 115.646 45.5492 115.412 45.2997C115.183 45.0502 115.006 44.7825 114.881 44.4968H114.791V46H111.869ZM114.76 41.3636C114.76 41.8627 114.827 42.2973 114.96 42.6676C115.097 43.0379 115.292 43.3256 115.545 43.5309C115.803 43.7321 116.111 43.8327 116.469 43.8327C116.831 43.8327 117.139 43.7321 117.393 43.5309C117.646 43.3256 117.837 43.0379 117.966 42.6676C118.099 42.2973 118.165 41.8627 118.165 41.3636C118.165 40.8646 118.099 40.4319 117.966 40.0657C117.837 39.6994 117.646 39.4157 117.393 39.2145C117.143 39.0132 116.835 38.9126 116.469 38.9126C116.107 38.9126 115.799 39.0112 115.545 39.2084C115.292 39.4056 115.097 39.6874 114.96 40.0536C114.827 40.4198 114.76 40.8565 114.76 41.3636Z" fill="#F22F21"/>
</g>
<defs>
<filter id="filter0_d_1_50" x="59.2305" y="6.39999" width="78.2" height="48.2" filterUnits="userSpaceOnUse" color-interpolation-filters="sRGB">
<feFlood flood-opacity="0" result="BackgroundImageFix"/>
<feColorMatrix in="SourceAlpha" type="matrix" values="0 0 0 0 0 0 0 0 0 0 0 0 0 0 0 0 0 0 127 0" result="hardAlpha"/>
<feOffset/>
<feGaussianBlur stdDeviation="2.8"/>
<feComposite in2="hardAlpha" operator="out"/>
<feColorMatrix type="matrix" values="0 0 0 0 0 0 0 0 0 0 0 0 0 0 0 0 0 0 0.25 0"/>
<feBlend mode="normal" in2="BackgroundImageFix" result="effect1_dropShadow_1_50"/>
<feBlend mode="normal" in="SourceGraphic" in2="effect1_dropShadow_1_50" result="shape"/>
</filter>
<linearGradient id="paint0_linear_1_50" x1="71.9152" y1="0" x2="71.9152" y2="61" gradientUnits="userSpaceOnUse">
<stop stop-color="#321513"/>
<stop offset="1" stop-color="#210E0C"/>
</linearGradient>
<linearGradient id="paint1_linear_1_50" x1="28.5" y1="46.5" x2="41" y2="8" gradientUnits="userSpaceOnUse">
<stop offset="0.120192" stop-color="#F22F21"/>
<stop offset="1" stop-color="#FFAC59"/>
</linearGradient>
</defs>
</svg>
