<svg width="401" height="401" viewBox="0 0 401 401" fill="none" xmlns="http://www.w3.org/2000/svg">
<rect width="401" height="401" rx="30.4" fill="url(#paint0_linear_3_36)"/>
<rect x="1.05" y="1.05" width="398.9" height="398.9" rx="29.35" stroke="white" stroke-opacity="0.15" stroke-width="2.1"/>
<g filter="url(#filter0_d_3_36)">
<path d="M345.71 125.73C345.486 123.139 343.773 120.914 341.326 120.027C338.873 119.134 336.128 119.742 334.282 121.577L296.527 159.187L254.672 145.985L241.419 104.288L279.175 66.6744C281.023 64.8355 281.626 62.0995 280.736 59.6601C279.836 57.2158 277.608 55.5133 275.003 55.2889C252.073 53.3208 229.606 61.4766 213.363 77.6615C191.115 99.8266 185.224 132.194 195.657 159.783C194.516 160.74 193.391 161.754 192.281 162.848L66.2525 281.322C66.208 281.365 66.1642 281.413 66.1161 281.455C51.2946 296.221 51.2946 320.247 66.1161 335.016C80.94 349.781 104.88 349.601 119.699 334.835C119.763 334.776 119.822 334.716 119.88 334.65L237.765 208.118C238.839 207.043 239.837 205.918 240.778 204.763C268.479 215.175 300.989 209.32 323.255 187.14C339.495 170.954 347.688 148.57 345.71 125.73ZM100.707 319.064C95.2457 324.504 86.4004 324.501 80.9393 319.064C75.4802 313.629 75.4802 304.81 80.9393 299.373C86.4004 293.937 95.2457 293.937 100.707 299.373C106.167 304.81 106.167 313.629 100.707 319.064Z" fill="url(#paint1_linear_3_36)" fill-opacity="0.8"/>
</g>
<defs>
<filter id="filter0_d_3_36" x="49.2857" y="49.2857" width="302.429" height="302.429" filterUnits="userSpaceOnUse" color-interpolation-filters="sRGB">
<feFlood flood-opacity="0" result="BackgroundImageFix"/>
<feColorMatrix in="SourceAlpha" type="matrix" values="0 0 0 0 0 0 0 0 0 0 0 0 0 0 0 0 0 0 127 0" result="hardAlpha"/>
<feOffset/>
<feGaussianBlur stdDeviation="2.85714"/>
<feComposite in2="hardAlpha" operator="out"/>
<feColorMatrix type="matrix" values="0 0 0 0 0 0 0 0 0 0 0 0 0 0 0 0 0 0 0.25 0"/>
<feBlend mode="normal" in2="BackgroundImageFix" result="effect1_dropShadow_3_36"/>
<feBlend mode="normal" in="SourceGraphic" in2="effect1_dropShadow_3_36" result="shape"/>
</filter>
<linearGradient id="paint0_linear_3_36" x1="200.5" y1="0" x2="200.5" y2="401" gradientUnits="userSpaceOnUse">
<stop stop-color="#300E0C"/>
<stop offset="1" stop-color="#200908"/>
</linearGradient>
<linearGradient id="paint1_linear_3_36" x1="162.103" y1="303.967" x2="242.69" y2="54.8214" gradientUnits="userSpaceOnUse">
<stop offset="0.120192" stop-color="#F22F21"/>
<stop offset="1" stop-color="#FFAC59"/>
</linearGradient>
</defs>
</svg>
