<svg width="40" height="40" viewBox="0 0 40 40" fill="none" xmlns="http://www.w3.org/2000/svg">
<g clip-path="url(#clip0_1_68)">
<rect width="40" height="40" rx="8" fill="url(#paint0_linear_1_68)"/>
<g filter="url(#filter0_d_1_68)">
<path d="M33.9721 12.8056C33.9505 12.5564 33.7857 12.3422 33.5503 12.2569C33.3143 12.1709 33.0501 12.2294 32.8725 12.406L29.2397 16.0249L25.2124 14.7546L23.9373 10.7425L27.5701 7.12331C27.7479 6.94637 27.8059 6.68311 27.7203 6.44839C27.6337 6.21321 27.4193 6.04939 27.1686 6.0278C24.9623 5.83842 22.8006 6.62318 21.2376 8.18048C19.097 10.3132 18.5301 13.4276 19.534 16.0822C19.4242 16.1743 19.316 16.2719 19.2092 16.3771L7.08271 27.7767C7.07843 27.7808 7.07422 27.7854 7.06959 27.7895C5.64347 29.2103 5.64347 31.5221 7.06959 32.9431C8.49594 34.3638 10.7995 34.3465 12.2253 32.9257C12.2315 32.92 12.2371 32.9143 12.2427 32.9079L23.5856 20.733C23.689 20.6295 23.785 20.5213 23.8755 20.4102C26.5409 21.412 29.669 20.8486 31.8115 18.7145C33.3741 17.1571 34.1624 15.0033 33.9721 12.8056ZM10.398 31.4083C9.87244 31.9317 9.02134 31.9313 8.49588 31.4083C7.9706 30.8853 7.9706 30.0367 8.49588 29.5136C9.02134 28.9905 9.87244 28.9905 10.398 29.5136C10.9232 30.0367 10.9232 30.8853 10.398 31.4083Z" fill="url(#paint1_linear_1_68)" fill-opacity="0.8"/>
</g>
</g>
<rect x="1.05" y="1.05" width="37.9" height="37.9" rx="6.95" stroke="white" stroke-opacity="0.15" stroke-width="2.1"/>
<defs>
<filter id="filter0_d_1_68" x="0.285713" y="0.285715" width="39.4286" height="39.4286" filterUnits="userSpaceOnUse" color-interpolation-filters="sRGB">
<feFlood flood-opacity="0" result="BackgroundImageFix"/>
<feColorMatrix in="SourceAlpha" type="matrix" values="0 0 0 0 0 0 0 0 0 0 0 0 0 0 0 0 0 0 127 0" result="hardAlpha"/>
<feOffset/>
<feGaussianBlur stdDeviation="2.85714"/>
<feComposite in2="hardAlpha" operator="out"/>
<feColorMatrix type="matrix" values="0 0 0 0 0 0 0 0 0 0 0 0 0 0 0 0 0 0 0.25 0"/>
<feBlend mode="normal" in2="BackgroundImageFix" result="effect1_dropShadow_1_68"/>
<feBlend mode="normal" in="SourceGraphic" in2="effect1_dropShadow_1_68" result="shape"/>
</filter>
<linearGradient id="paint0_linear_1_68" x1="20" y1="0" x2="20" y2="40" gradientUnits="userSpaceOnUse">
<stop stop-color="#300E0C"/>
<stop offset="1" stop-color="#200908"/>
</linearGradient>
<linearGradient id="paint1_linear_1_68" x1="16.3055" y1="29.9556" x2="24.0595" y2="5.98282" gradientUnits="userSpaceOnUse">
<stop offset="0.120192" stop-color="#F22F21"/>
<stop offset="1" stop-color="#FFAC59"/>
</linearGradient>
<clipPath id="clip0_1_68">
<rect width="40" height="40" rx="8" fill="white"/>
</clipPath>
</defs>
</svg>
