<svg width="175" height="36" viewBox="0 0 175 36" fill="none" xmlns="http://www.w3.org/2000/svg">
<g clip-path="url(#clip0_1_56)">
<rect width="175" height="36" rx="8" fill="url(#paint0_linear_1_56)"/>
<g filter="url(#filter0_d_1_56)">
<path d="M31.976 11.8334C31.9576 11.6197 31.8163 11.4362 31.6145 11.363C31.4122 11.2894 31.1858 11.3395 31.0336 11.4909L27.9197 14.5928L24.4678 13.5039L23.3748 10.065L26.4887 6.96284C26.6411 6.81117 26.6908 6.58552 26.6174 6.38434C26.5432 6.18275 26.3594 6.04234 26.1445 6.02383C24.2534 5.86151 22.4005 6.53415 21.0608 7.86899C19.226 9.69704 18.7401 12.3665 19.6005 14.6419C19.5065 14.7208 19.4137 14.8045 19.3222 14.8947L8.92804 24.6657C8.92437 24.6693 8.92076 24.6732 8.91679 24.6767C7.6944 25.8945 7.6944 27.8761 8.91679 29.0941C10.1394 30.3118 12.1138 30.297 13.336 29.0792C13.3413 29.0743 13.3461 29.0694 13.3509 29.0639L23.0734 18.6283C23.162 18.5396 23.2443 18.4468 23.3219 18.3516C25.6065 19.2103 28.2877 18.7274 30.1242 16.8981C31.4635 15.5632 32.1392 13.7171 31.976 11.8334ZM11.7697 27.7785C11.3192 28.2272 10.5897 28.2269 10.1393 27.7785C9.68909 27.3303 9.68909 26.6029 10.1393 26.1545C10.5897 25.7062 11.3192 25.7062 11.7697 26.1545C12.2199 26.6029 12.2199 27.3303 11.7697 27.7785Z" fill="url(#paint1_linear_1_56)" fill-opacity="0.8"/>
</g>
<g filter="url(#filter1_d_1_56)">
<path d="M39.3583 24.5V12.1364H43.7653C44.7231 12.1364 45.518 12.3014 46.1499 12.6314C46.7857 12.9614 47.2607 13.4182 47.5746 14.0018C47.8885 14.5813 48.0455 15.2514 48.0455 16.0121C48.0455 16.7687 47.8865 17.4348 47.5685 18.0103C47.2546 18.5818 46.7797 19.0265 46.1438 19.3445C45.512 19.6624 44.7171 19.8214 43.7592 19.8214H40.4208V18.2156H43.5902C44.1939 18.2156 44.6849 18.129 45.0632 17.956C45.4455 17.7829 45.7253 17.5314 45.9023 17.2013C46.0794 16.8713 46.168 16.4749 46.168 16.0121C46.168 15.5452 46.0774 15.1407 45.8963 14.7986C45.7192 14.4566 45.4395 14.195 45.0572 14.0138C44.6789 13.8287 44.1818 13.7361 43.566 13.7361H41.2237V24.5H39.3583ZM45.4616 18.9219L48.5163 24.5H46.3913L43.397 18.9219H45.4616ZM54.0507 24.6871C53.1371 24.6871 52.3503 24.4919 51.6902 24.1016C51.0342 23.7071 50.5271 23.1538 50.1689 22.4414C49.8148 21.725 49.6377 20.8859 49.6377 19.924C49.6377 18.9742 49.8148 18.1371 50.1689 17.4126C50.5271 16.6882 51.0262 16.1227 51.6661 15.7163C52.31 15.3098 53.0626 15.1065 53.9239 15.1065C54.4471 15.1065 54.9542 15.1931 55.4452 15.3661C55.9362 15.5392 56.3769 15.8108 56.7673 16.1811C57.1577 16.5514 57.4656 17.0323 57.691 17.6239C57.9163 18.2115 58.029 18.9259 58.029 19.767V20.407H50.6579V19.0547H56.2602C56.2602 18.5798 56.1636 18.1592 55.9704 17.793C55.7772 17.4227 55.5056 17.1309 55.1554 16.9176C54.8093 16.7043 54.4028 16.5977 53.936 16.5977C53.4289 16.5977 52.9862 16.7224 52.6079 16.9719C52.2336 17.2174 51.9438 17.5394 51.7385 17.9379C51.5373 18.3323 51.4367 18.7609 51.4367 19.2237V20.2802C51.4367 20.9 51.5454 21.4272 51.7627 21.8619C51.984 22.2965 52.2919 22.6285 52.6863 22.8579C53.0808 23.0833 53.5416 23.196 54.0688 23.196C54.4109 23.196 54.7228 23.1477 55.0045 23.0511C55.2862 22.9505 55.5297 22.8016 55.735 22.6044C55.9402 22.4072 56.0972 22.1637 56.2059 21.8739L57.9143 22.1818C57.7775 22.6849 57.532 23.1256 57.1778 23.5039C56.8277 23.8782 56.387 24.17 55.8557 24.3793C55.3285 24.5845 54.7268 24.6871 54.0507 24.6871ZM66.2921 27.9773V23.0572H66.1834C66.0747 23.2544 65.9178 23.4798 65.7125 23.7333C65.5113 23.9869 65.2336 24.2082 64.8794 24.3974C64.5253 24.5865 64.0665 24.6811 63.503 24.6811C62.7544 24.6811 62.0863 24.4899 61.4988 24.1076C60.9152 23.7212 60.4564 23.1719 60.1223 22.4595C59.7923 21.7431 59.6273 20.8839 59.6273 19.8817C59.6273 18.8796 59.7943 18.0224 60.1284 17.31C60.4664 16.5977 60.9293 16.0523 61.5169 15.674C62.1045 15.2957 62.7705 15.1065 63.5151 15.1065C64.0906 15.1065 64.5534 15.2031 64.9036 15.3963C65.2577 15.5855 65.5314 15.8068 65.7246 16.0604C65.9218 16.3139 66.0747 16.5373 66.1834 16.7305H66.3343V15.2273H68.0971V27.9773H66.2921ZM63.9014 23.1417C64.4206 23.1417 64.8593 23.0048 65.2175 22.7312C65.5797 22.4535 65.8534 22.0691 66.0385 21.5781C66.2277 21.0871 66.3223 20.5156 66.3223 19.8636C66.3223 19.2197 66.2297 18.6562 66.0446 18.1733C65.8594 17.6903 65.5878 17.314 65.2296 17.0444C64.8714 16.7747 64.4287 16.6399 63.9014 16.6399C63.3581 16.6399 62.9054 16.7808 62.5431 17.0625C62.1809 17.3442 61.9072 17.7286 61.7221 18.2156C61.541 18.7025 61.4505 19.2519 61.4505 19.8636C61.4505 20.4834 61.543 21.0408 61.7282 21.5359C61.9133 22.0309 62.187 22.4233 62.5492 22.7131C62.9154 22.9988 63.3662 23.1417 63.9014 23.1417ZM76.3979 20.6545V15.2273H78.209V24.5H76.4341V22.8942H76.3375C76.1242 23.3892 75.7821 23.8017 75.3112 24.1317C74.8444 24.4577 74.2628 24.6207 73.5666 24.6207C72.9709 24.6207 72.4437 24.4899 71.9849 24.2283C71.5301 23.9627 71.1719 23.5703 70.9103 23.0511C70.6527 22.532 70.524 21.89 70.524 21.1254V15.2273H72.329V20.908C72.329 21.5399 72.5041 22.043 72.8542 22.4173C73.2044 22.7915 73.6591 22.9787 74.2186 22.9787C74.5566 22.9787 74.8927 22.8942 75.2267 22.7251C75.5648 22.5561 75.8445 22.3005 76.0659 21.9584C76.2912 21.6164 76.4019 21.1817 76.3979 20.6545ZM80.6343 24.5V15.2273H82.4394V24.5H80.6343ZM81.5459 13.7965C81.232 13.7965 80.9623 13.6919 80.7369 13.4826C80.5156 13.2693 80.4049 13.0157 80.4049 12.7219C80.4049 12.4241 80.5156 12.1706 80.7369 11.9613C80.9623 11.748 81.232 11.6413 81.5459 11.6413C81.8598 11.6413 82.1274 11.748 82.3488 11.9613C82.5742 12.1706 82.6869 12.4241 82.6869 12.7219C82.6869 13.0157 82.5742 13.2693 82.3488 13.4826C82.1274 13.6919 81.8598 13.7965 81.5459 13.7965ZM84.8677 24.5V15.2273H86.6124V16.7003H86.709C86.878 16.2012 87.1758 15.8088 87.6024 15.5231C88.0331 15.2333 88.52 15.0884 89.0634 15.0884C89.1761 15.0884 89.3089 15.0924 89.4618 15.1005C89.6188 15.1085 89.7415 15.1186 89.8301 15.1307V16.8572C89.7576 16.8371 89.6288 16.815 89.4437 16.7908C89.2586 16.7627 89.0734 16.7486 88.8883 16.7486C88.4617 16.7486 88.0814 16.8391 87.7473 17.0202C87.4173 17.1973 87.1557 17.4448 86.9625 17.7628C86.7693 18.0767 86.6727 18.4349 86.6727 18.8374V24.5H84.8677ZM95.0565 24.6871C94.1429 24.6871 93.3561 24.4919 92.6961 24.1016C92.0401 23.7071 91.533 23.1538 91.1748 22.4414C90.8206 21.725 90.6435 20.8859 90.6435 19.924C90.6435 18.9742 90.8206 18.1371 91.1748 17.4126C91.533 16.6882 92.032 16.1227 92.6719 15.7163C93.3159 15.3098 94.0685 15.1065 94.9298 15.1065C95.453 15.1065 95.9601 15.1931 96.4511 15.3661C96.9421 15.5392 97.3828 15.8108 97.7732 16.1811C98.1635 16.5514 98.4714 17.0323 98.6968 17.6239C98.9222 18.2115 99.0349 18.9259 99.0349 19.767V20.407H91.6638V19.0547H97.2661C97.2661 18.5798 97.1695 18.1592 96.9763 17.793C96.7831 17.4227 96.5114 17.1309 96.1613 16.9176C95.8152 16.7043 95.4087 16.5977 94.9418 16.5977C94.4347 16.5977 93.992 16.7224 93.6137 16.9719C93.2394 17.2174 92.9496 17.5394 92.7444 17.9379C92.5432 18.3323 92.4425 18.7609 92.4425 19.2237V20.2802C92.4425 20.9 92.5512 21.4272 92.7685 21.8619C92.9899 22.2965 93.2978 22.6285 93.6922 22.8579C94.0866 23.0833 94.5474 23.196 95.0746 23.196C95.4167 23.196 95.7286 23.1477 96.0104 23.0511C96.2921 22.9505 96.5356 22.8016 96.7408 22.6044C96.9461 22.4072 97.1031 22.1637 97.2117 21.8739L98.9202 22.1818C98.7833 22.6849 98.5378 23.1256 98.1837 23.5039C97.8335 23.8782 97.3928 24.17 96.8616 24.3793C96.3344 24.5845 95.7327 24.6871 95.0565 24.6871ZM107.986 17.4911L106.35 17.7809C106.282 17.5716 106.173 17.3724 106.024 17.1832C105.879 16.9941 105.682 16.8391 105.433 16.7184C105.183 16.5977 104.871 16.5373 104.497 16.5373C103.986 16.5373 103.559 16.652 103.217 16.8814C102.875 17.1068 102.704 17.3986 102.704 17.7567C102.704 18.0666 102.819 18.3162 103.048 18.5053C103.277 18.6945 103.648 18.8494 104.159 18.9702L105.632 19.3082C106.485 19.5054 107.121 19.8093 107.539 20.2198C107.958 20.6303 108.167 21.1636 108.167 21.8196C108.167 22.375 108.006 22.87 107.684 23.3047C107.366 23.7353 106.922 24.0734 106.35 24.3189C105.783 24.5644 105.125 24.6871 104.376 24.6871C103.338 24.6871 102.491 24.4658 101.834 24.0231C101.178 23.5763 100.776 22.9425 100.627 22.1214L102.372 21.8558C102.48 22.3106 102.704 22.6547 103.042 22.8881C103.38 23.1175 103.821 23.2322 104.364 23.2322C104.956 23.2322 105.428 23.1095 105.783 22.864C106.137 22.6145 106.314 22.3106 106.314 21.9524C106.314 21.6626 106.205 21.4191 105.988 21.2219C105.775 21.0247 105.447 20.8758 105.004 20.7752L103.434 20.4311C102.569 20.2339 101.929 19.92 101.515 19.4893C101.104 19.0587 100.899 18.5134 100.899 17.8533C100.899 17.306 101.052 16.8271 101.358 16.4165C101.663 16.006 102.086 15.6861 102.625 15.4567C103.165 15.2232 103.782 15.1065 104.479 15.1065C105.481 15.1065 106.27 15.3239 106.845 15.7585C107.421 16.1892 107.801 16.7667 107.986 17.4911Z" fill="#E8E8E8"/>
<path d="M121.415 12.1364H124.398V20.1111C124.398 21.0328 124.178 21.8357 123.74 22.5199C123.301 23.2 122.689 23.7273 121.904 24.1016C121.12 24.4718 120.208 24.657 119.17 24.657C118.119 24.657 117.202 24.4718 116.417 24.1016C115.632 23.7273 115.022 23.2 114.588 22.5199C114.153 21.8357 113.936 21.0328 113.936 20.1111V12.1364H116.924V19.8516C116.924 20.2782 117.017 20.6585 117.202 20.9925C117.391 21.3266 117.654 21.5882 117.993 21.7773C118.331 21.9665 118.723 22.0611 119.17 22.0611C119.616 22.0611 120.007 21.9665 120.341 21.7773C120.679 21.5882 120.943 21.3266 121.132 20.9925C121.321 20.6585 121.415 20.2782 121.415 19.8516V12.1364ZM129.223 19.2116V24.5H126.271V15.2273H129.078V16.9297H129.18C129.386 16.3622 129.736 15.9175 130.231 15.5955C130.726 15.2695 131.316 15.1065 132 15.1065C132.652 15.1065 133.217 15.2534 133.696 15.5472C134.179 15.837 134.553 16.2435 134.819 16.7667C135.089 17.2859 135.221 17.8936 135.217 18.5898V24.5H132.265V19.1694C132.269 18.6542 132.139 18.2518 131.873 17.962C131.611 17.6722 131.247 17.5273 130.78 17.5273C130.47 17.5273 130.197 17.5958 129.959 17.7326C129.726 17.8654 129.545 18.0566 129.416 18.3061C129.291 18.5556 129.227 18.8575 129.223 19.2116ZM137.045 24.5V15.2273H139.997V24.5H137.045ZM138.524 14.1467C138.11 14.1467 137.753 14.0098 137.456 13.7361C137.158 13.4584 137.009 13.1244 137.009 12.734C137.009 12.3477 137.158 12.0176 137.456 11.744C137.753 11.4663 138.11 11.3274 138.524 11.3274C138.943 11.3274 139.299 11.4663 139.593 11.744C139.89 12.0176 140.039 12.3477 140.039 12.734C140.039 13.1244 139.89 13.4584 139.593 13.7361C139.299 14.0098 138.943 14.1467 138.524 14.1467ZM141.876 24.5V12.1364H144.864V22.0731H150.008V24.5H141.876ZM151.555 24.5V15.2273H154.507V24.5H151.555ZM153.034 14.1467C152.619 14.1467 152.263 14.0098 151.965 13.7361C151.668 13.4584 151.519 13.1244 151.519 12.734C151.519 12.3477 151.668 12.0176 151.965 11.744C152.263 11.4663 152.619 11.3274 153.034 11.3274C153.452 11.3274 153.809 11.4663 154.102 11.744C154.4 12.0176 154.549 12.3477 154.549 12.734C154.549 13.1244 154.4 13.4584 154.102 13.7361C153.809 14.0098 153.452 14.1467 153.034 14.1467ZM156.386 24.5V12.1364H159.338V16.815H159.398C159.519 16.5333 159.69 16.2616 159.911 16C160.137 15.7384 160.423 15.5251 160.769 15.3601C161.119 15.191 161.537 15.1065 162.024 15.1065C162.668 15.1065 163.27 15.2756 163.829 15.6136C164.393 15.9517 164.848 16.4729 165.194 17.1772C165.54 17.8815 165.713 18.779 165.713 19.8697C165.713 20.9201 165.546 21.7995 165.212 22.5078C164.882 23.2161 164.435 23.7474 163.872 24.1016C163.312 24.4557 162.69 24.6328 162.006 24.6328C161.539 24.6328 161.135 24.5563 160.793 24.4034C160.451 24.2505 160.163 24.0492 159.93 23.7997C159.7 23.5502 159.523 23.2825 159.398 22.9968H159.308V24.5H156.386ZM159.278 19.8636C159.278 20.3627 159.344 20.7973 159.477 21.1676C159.614 21.5379 159.809 21.8256 160.062 22.0309C160.32 22.2321 160.628 22.3327 160.986 22.3327C161.348 22.3327 161.656 22.2321 161.91 22.0309C162.163 21.8256 162.354 21.5379 162.483 21.1676C162.616 20.7973 162.682 20.3627 162.682 19.8636C162.682 19.3646 162.616 18.9319 162.483 18.5657C162.354 18.1995 162.163 17.9157 161.91 17.7145C161.66 17.5133 161.352 17.4126 160.986 17.4126C160.624 17.4126 160.316 17.5112 160.062 17.7084C159.809 17.9057 159.614 18.1874 159.477 18.5536C159.344 18.9199 159.278 19.3565 159.278 19.8636Z" fill="#F22F21"/>
</g>
</g>
<rect x="1.07143" y="1.07143" width="172.857" height="33.8571" rx="6.92857" stroke="white" stroke-opacity="0.15" stroke-width="2.14286"/>
<defs>
<filter id="filter0_d_1_56" x="2.28571" y="0.285715" width="35.4286" height="35.4286" filterUnits="userSpaceOnUse" color-interpolation-filters="sRGB">
<feFlood flood-opacity="0" result="BackgroundImageFix"/>
<feColorMatrix in="SourceAlpha" type="matrix" values="0 0 0 0 0 0 0 0 0 0 0 0 0 0 0 0 0 0 127 0" result="hardAlpha"/>
<feOffset/>
<feGaussianBlur stdDeviation="2.85714"/>
<feComposite in2="hardAlpha" operator="out"/>
<feColorMatrix type="matrix" values="0 0 0 0 0 0 0 0 0 0 0 0 0 0 0 0 0 0 0.25 0"/>
<feBlend mode="normal" in2="BackgroundImageFix" result="effect1_dropShadow_1_56"/>
<feBlend mode="normal" in="SourceGraphic" in2="effect1_dropShadow_1_56" result="shape"/>
</filter>
<filter id="filter1_d_1_56" x="32.2857" y="1.78571" width="140.429" height="32.4286" filterUnits="userSpaceOnUse" color-interpolation-filters="sRGB">
<feFlood flood-opacity="0" result="BackgroundImageFix"/>
<feColorMatrix in="SourceAlpha" type="matrix" values="0 0 0 0 0 0 0 0 0 0 0 0 0 0 0 0 0 0 127 0" result="hardAlpha"/>
<feOffset/>
<feGaussianBlur stdDeviation="2.85714"/>
<feComposite in2="hardAlpha" operator="out"/>
<feColorMatrix type="matrix" values="0 0 0 0 0 0 0 0 0 0 0 0 0 0 0 0 0 0 0.25 0"/>
<feBlend mode="normal" in2="BackgroundImageFix" result="effect1_dropShadow_1_56"/>
<feBlend mode="normal" in="SourceGraphic" in2="effect1_dropShadow_1_56" result="shape"/>
</filter>
<linearGradient id="paint0_linear_1_56" x1="87.5" y1="0" x2="87.5" y2="36" gradientUnits="userSpaceOnUse">
<stop stop-color="#300E0C"/>
<stop offset="1" stop-color="#200908"/>
</linearGradient>
<linearGradient id="paint1_linear_1_56" x1="16.8333" y1="26.5333" x2="23.4796" y2="5.98527" gradientUnits="userSpaceOnUse">
<stop offset="0.120192" stop-color="#F22F21"/>
<stop offset="1" stop-color="#FFAC59"/>
</linearGradient>
<clipPath id="clip0_1_56">
<rect width="175" height="36" rx="8" fill="white"/>
</clipPath>
</defs>
</svg>
